<svg width="651" height="67" viewBox="0 0 651 67" fill="none" xmlns="http://www.w3.org/2000/svg">
<path d="M31.744 66.576C21.376 66.576 13.552 64.88 8.272 61.488C2.992 58.096 0.352 52.912 0.352 45.936V37.008H22.24V43.392C22.24 46.144 22.864 48.272 24.112 49.776C25.392 51.248 27.92 51.984 31.696 51.984C35.472 51.984 38.032 51.312 39.376 49.968C40.72 48.624 41.392 46.64 41.392 44.016V1.2H63.232V47.184C63.232 53.488 60.608 58.304 55.36 61.632C50.144 64.928 42.272 66.576 31.744 66.576ZM87.6198 1.2V14.928L83.4438 30.192H69.5718L73.8918 13.152L72.2118 16.464V1.2H87.6198ZM92.6545 66L112.431 1.2H143.295L163.119 66H140.559L137.295 52.128H118.479L115.215 66H92.6545ZM121.983 37.824H133.839L128.031 13.872H127.839L121.983 37.824ZM170.633 66V1.2H192.473V66H170.633ZM202.179 66V1.2H237.363L246.291 50.832H246.003L254.931 1.2H290.115V66H268.467V16.272H268.323L258.771 65.76H233.523L223.971 16.272H223.827V66H202.179ZM298.262 66V1.2H349.478V15.984H320.198V26.4H347.078V40.464H320.198V51.216H349.478V66H298.262ZM400.659 66V15.984H381.843V1.2H441.363V15.984H422.595V66H400.659ZM479.169 66.576C466.049 66.576 457.153 63.68 452.481 57.888C447.841 52.096 445.521 44 445.521 33.6C445.521 23.2 447.841 15.104 452.481 9.31199C457.153 3.51999 466.049 0.623995 479.169 0.623995C492.289 0.623995 501.169 3.51999 505.809 9.31199C510.481 15.104 512.817 23.2 512.817 33.6C512.817 44 510.481 52.096 505.809 57.888C501.169 63.68 492.289 66.576 479.169 66.576ZM479.169 51.792C482.817 51.792 485.697 50.944 487.809 49.248C489.921 47.52 490.977 42.304 490.977 33.6C490.977 24.736 489.921 19.488 487.809 17.856C485.697 16.224 482.817 15.408 479.169 15.408C475.521 15.408 472.641 16.224 470.529 17.856C468.417 19.488 467.361 24.736 467.361 33.6C467.361 42.304 468.417 47.52 470.529 49.248C472.641 50.944 475.521 51.792 479.169 51.792ZM551.075 66.384C540.035 66.384 531.859 64.624 526.547 61.104C521.267 57.552 518.627 51.616 518.627 43.296V1.2H540.563V41.088C540.563 44.768 541.347 47.44 542.915 49.104C544.483 50.768 547.203 51.6 551.075 51.6C554.947 51.6 557.667 50.784 559.235 49.152C560.803 47.488 561.587 44.8 561.587 41.088V1.2H583.523V43.296C583.523 51.616 580.867 57.552 575.555 61.104C570.275 64.624 562.115 66.384 551.075 66.384ZM609.816 66V15.984H591V1.2H650.52V15.984H631.752V66H609.816Z" fill="#7C001E"/>
</svg>
